<svg width="22" height="21" viewBox="0 0 22 21" fill="none" xmlns="http://www.w3.org/2000/svg">
<path d="M21.4602 5.5699L11.3572 0.114902C11.1342 -0.00509766 10.8672 -0.00509766 10.6442 0.114902L0.543237 5.5699C0.179237 5.7669 0.0432375 6.2219 0.240237 6.5869C0.375237 6.8369 0.634237 6.9799 0.900237 6.9799C1.02024 6.9799 1.14324 6.9499 1.25624 6.8899L2.07124 6.4499L3.70024 17.9629C3.91424 19.1779 5.00824 20.0249 6.35824 20.0249H15.6402C16.9922 20.0249 18.0852 19.1769 18.3032 17.9379L19.9292 6.4479L20.7472 6.8899C21.1112 7.0829 21.5672 6.9499 21.7642 6.5859C21.9602 6.2229 21.8242 5.7679 21.4602 5.5699ZM16.8222 17.7029C16.7152 18.3089 16.1192 18.5249 15.6422 18.5249H6.36024C5.88024 18.5249 5.28524 18.3089 5.18224 17.7269L3.48024 5.6899L11.0002 1.6279L18.5222 5.6879L16.8222 17.7029Z" fill="#44444F"/>
<path d="M7.22021 10.1838C7.22021 12.2678 8.91521 13.9638 11.0002 13.9638C13.0852 13.9638 14.7802 12.2678 14.7802 10.1838C14.7802 8.09981 13.0852 6.40381 11.0002 6.40381C8.91521 6.40381 7.22021 8.09981 7.22021 10.1838ZM13.2802 10.1838C13.2802 11.4418 12.2582 12.4638 11.0002 12.4638C9.74221 12.4638 8.72021 11.4418 8.72021 10.1838C8.72021 8.92581 9.74221 7.90381 11.0002 7.90381C12.2582 7.90381 13.2802 8.92581 13.2802 10.1838Z" fill="#44444F"/>
</svg>
